<?xml version="1.0" encoding="UTF-8"?>
<svg version="1.1" xmlns="http://www.w3.org/2000/svg" width="3000" height="2000">
<path d="M0 0 C3.91795647 -0.66888982 7.90678776 -0.46284863 11.875 -0.4375 C12.97714844 -0.45748047 14.07929687 -0.47746094 15.21484375 -0.49804688 C16.80619141 -0.49708008 16.80619141 -0.49708008 18.4296875 -0.49609375 C19.40147949 -0.49794678 20.37327148 -0.4997998 21.37451172 -0.50170898 C24.7104641 0.13576378 25.71081002 1.56904028 28 4 C35.30494061 6.86985853 43.68252147 6.17423507 51.375 6 C53.67429024 5.94896137 55.97380214 5.90690246 58.2734375 5.875 C59.78043213 5.84019531 59.78043213 5.84019531 61.31787109 5.8046875 C64.06599213 6.00480554 65.66275013 6.58778123 68 8 C67.64950425 11.24208567 67.43778819 12.61527704 64.9375 14.8125 C64.298125 15.204375 63.65875 15.59625 63 16 C63.7425 16.433125 64.485 16.86625 65.25 17.3125 C68.69497978 20.67918479 69.55424427 23.794884 70.91015625 28.34375 C72.13354424 31.32548416 73.72593801 32.76813709 76 35 C76.25 38.25 76.25 38.25 76 41 C75.071875 41.309375 75.071875 41.309375 74.125 41.625 C71.07208775 43.60041381 70.91071752 45.51831886 70 49 C69.86089102 51.45580861 69.78042751 53.91544285 69.75 56.375 C69.34398051 63.40808332 68.1171299 67.19502617 63 72 C62.39800781 72.56589844 61.79601562 73.13179687 61.17578125 73.71484375 C59.86714961 74.88544528 58.53794061 76.03335994 57.19140625 77.16015625 C54.79667814 79.17070338 52.49496033 81.26500854 50.1875 83.375 C46.76770672 86.46636801 43.28041476 89.42459032 39.6875 92.3125 C34.23479676 96.72254752 29.12013668 101.43768798 23.99609375 106.21875 C21.07006622 108.94691278 18.078335 111.58879486 15.046875 114.19921875 C11.40087204 117.40686639 7.86817265 120.74297514 4.3203125 124.05859375 C2 126 2 126 0 126 C0 126.99 0 127.98 0 129 C5.49236546 128.72988367 9.43945733 127.96422058 14.375 125.5 C18.32269671 123.55379658 21.35420098 122.69269256 25.75 122.5 C30.46446619 122.27263567 32.75138298 121.23537221 36.3359375 118.25390625 C38.13191427 116.90059981 39.68570538 116.27001933 41.8125 115.5625 C45.15358544 114.43809625 47.84930926 112.90825733 50.8125 111 C56.66201451 107.3754542 62.63047552 105.83020965 69.34375 104.5546875 C74.66879582 103.52342863 78.85080034 101.63630292 83.64453125 99.109375 C87.58038486 97.2556728 91.32846589 96.92040314 95.625 97.125 C98.78295449 96.95879187 100.30777001 95.67516533 103 94 C105.48661605 92.93249192 107.9980974 91.95261295 110.5234375 90.98046875 C112.55192782 90.17739135 114.53481539 89.25999972 116.5 88.3125 C119.61577133 87.14408575 121.40290627 86.84290645 124.625 86.6875 C129.12034126 86.37418834 132.34437589 85.05852677 136.375 83.0625 C141.62042598 80.47655402 146.07339472 79.28816206 151.83984375 78.56640625 C155.53982884 77.90324452 158.92705529 76.6748665 162.4375 75.375 C167.38165845 73.56071101 171.57534906 72.78422195 176.875 73.0625 C182.78741424 73.3588435 185.33625555 71.89588655 189.8984375 68.3125 C192.36400361 66.77266689 193.51967588 66.75785237 196.375 67 C200.56939311 67.34533597 202.44854525 66.30111214 205.9375 64 C212.49277076 60.04279847 218.43874254 60.65378207 225.8203125 60.90625 C232.50480901 61.13093896 237.73340677 59.57017817 243.8125 56.9375 C247.73809863 55.26298684 251.05346738 54.71399551 255.3125 54.5 C260.32663845 54.24482756 262.18087777 53.30302463 266 50 C273.89545703 48.59194803 281.88921208 48.92363249 289.87573242 49.13208008 C292.19258462 49.18762189 294.50884581 49.21598505 296.82617188 49.24414062 C298.31514494 49.2795764 299.80408058 49.31662963 301.29296875 49.35546875 C301.97747604 49.35983444 302.66198334 49.36420013 303.36723328 49.36869812 C308.33970423 49.54391212 311.07591552 51.04759358 315 54 C317.71668875 55.07658187 317.71668875 55.07658187 320.375 55.75 C321.24898437 55.99234375 322.12296875 56.2346875 323.0234375 56.484375 C323.67570312 56.65453125 324.32796875 56.8246875 325 57 C325 61.68091299 324.00354129 62.62101604 321 66 C324.96336967 66.80885095 327.57264711 67.12210082 331.5 66 C335.5871456 64.83224411 337.90661108 64.8836212 342 66 C343.42086017 67.19481424 344.83864636 68.39632862 346.1875 69.671875 C349.29527806 71.94912616 352.94767268 72.8246516 356.609375 73.91015625 C359 75 359 75 360.390625 76.68359375 C361.29954112 80.1386403 360.85519651 82.53849031 360 86 C358.58363737 88.30332162 357.20697315 90.32248913 355.5625 92.4375 C351.06162315 98.62182397 349.17651567 102.82087222 348.85546875 110.421875 C348.40990648 120.41075944 348.40990648 120.41075944 346 123.875 C344.515 124.926875 344.515 124.926875 343 126 C341.61573067 127.23972715 340.24176877 128.49100511 338.875 129.75 C335.65519065 132.60032303 332.36342472 135.32152803 329 138 C322.36025785 143.37903161 316.23675142 149.28706623 310.05078125 155.17578125 C306.09213917 158.93736601 302.03282209 162.55554766 297.8828125 166.10546875 C295.76176693 168.23971585 294.36149826 170.32050183 293 173 C293.20643199 175.25328412 293.20643199 175.25328412 294 177 C294.79921875 176.37351562 295.5984375 175.74703125 296.421875 175.1015625 C300.43983477 172.42213574 304.53676055 171.96795593 309.25 171.375 C315.14996391 170.91849564 315.14996391 170.91849564 320 168 C321.8125 167.32421875 321.8125 167.32421875 324 166.6875 C327.54538937 165.58486694 330.57684271 164.18884988 333.8125 162.375 C338.66586687 159.82377449 342.78742555 159.59516843 348.1953125 159.375 C351.91290611 158.87794013 353.9108738 157.30035996 356.87109375 155.125 C359.6555555 153.65357801 361.92909631 153.62424897 365.0625 153.5 C371.04678949 153.25881957 373.42543017 151.73434272 378 148 C381.23280698 146.92239767 383.42670362 147.02752927 386.875 147.25 C390.3039809 147.32691172 391.80618957 146.67342578 394.4375 144.5 C397.9490705 141.64784206 400.21578307 141.80869145 404.6015625 142.078125 C410.06886982 141.90003681 415.14973651 138.99398458 419.88671875 136.44921875 C423.17317957 134.91938567 426.06291158 134.25553059 429.625 133.625 C437.32462601 132.07533871 444.14869273 129.37792163 451.18359375 125.9296875 C456.76161319 123.25139461 462.40679405 121.76715023 468.41699219 120.39428711 C471.88383986 119.59246271 474.84160396 118.60804182 478 117 C483.38103161 117.32945092 483.38103161 117.32945092 485.5 119.625 C486.97568415 121.28859073 486.97568415 121.28859073 489.5625 121 C493.52971399 119.84590138 496.95187657 118.17581562 500.6015625 116.2578125 C502.49034951 115.26727599 504.42605634 114.36619718 506.375 113.5 C509.1498753 112.14470719 509.1498753 112.14470719 510.875 109.5 C514.08895141 105.71888069 518.12959445 104.25748276 523.06030273 103.81518555 C523.76098877 103.7769165 524.4616748 103.73864746 525.18359375 103.69921875 C530.53852689 103.15081205 534.65703351 101.03296547 539.375 98.5625 C548.34283739 94.10725753 555.67061873 91.8389635 565.75 92.125 C571.06603541 92.24650938 573.68762463 91.05459922 578 88 C581 86 581 86 584.1875 85.125 C588.06752168 84.15589227 588.06752168 84.15589227 591.39453125 81.9453125 C597.16950799 78.99937295 603.16796635 79.56908475 609.5 79.75 C610.70398437 79.76804687 611.90796875 79.78609375 613.1484375 79.8046875 C616.09979605 79.85153446 619.04947036 79.91711995 622 80 C622.33 79.01 622.66 78.02 623 77 C628.63860917 73.72173885 634.47105497 73.28624327 640.890625 72.625 C644.28003857 71.94371084 644.73696562 71.37224247 647 69 C649.78515625 68.19140625 649.78515625 68.19140625 653.0625 67.5625 C657.2855107 66.67492032 661.11094546 65.66951254 665.0625 63.9375 C668.70840921 62.36822516 672.00502898 61.59828654 675.9375 61.0625 C680.26052348 60.45595334 683.54969701 59.41530676 687.4375 57.4375 C692.61537227 54.85604634 697.0166223 54.47285004 702.76171875 54.53125 C706.07877262 53.98707711 707.03306581 53.38270145 709.64453125 51.46875 C715.64536562 47.44194025 722.24927998 48.76790099 729.15625 49.1953125 C736.46128542 49.47201839 740.21916328 48.36524721 746 44 C759.40378394 35.48722071 772.44642323 35.26446685 787.8137207 35.85620117 C799.74128619 36.51355427 799.74128619 36.51355427 810.125 31.1875 C812 30 812 30 814.75 30.5625 C818 32 818 32 819.73724365 32.99890137 C825.05939099 36.00599673 829.34490468 36.55209424 835.390625 36.46875 C836.25766052 36.47579956 837.12469604 36.48284912 838.01800537 36.4901123 C840.76231041 36.51200391 843.505634 36.50917041 846.25 36.5 C849.8807335 36.48796092 853.51001909 36.50159995 857.140625 36.53125 C858.38443939 36.51427063 858.38443939 36.51427063 859.65338135 36.49694824 C863.45186719 36.53032807 865.39118236 36.56742517 868.55371094 38.81445312 C870 41 870 41 870 44.4375 C868.93834844 48.21963369 867.62276446 50.13135137 865 53 C864.67 53.66 864.34 54.32 864 55 C864.60328125 55.02578125 865.2065625 55.0515625 865.828125 55.078125 C869.63803524 55.34850573 872.33681524 55.58945706 875.625 57.625 C877.65897123 61.13822303 877.0039276 63.1189628 876 67 C874.26549645 69.27162644 872.2069258 71.00983826 870 72.8125 C865.97211991 75.9650327 865.97211991 75.9650327 863 80 C862.95134933 81.45231269 862.96303544 82.90693772 863.0078125 84.359375 C863.02457031 85.22820312 863.04132813 86.09703125 863.05859375 86.9921875 C863.10249353 88.8153196 863.1544386 90.63827761 863.21484375 92.4609375 C863.33305643 99.74713726 861.61637849 104.28448377 857 110 C862.85881296 110.46870504 865.28167494 109.34214692 870 106 C874.44050662 104.22379735 878.10590881 103.96831451 882.8125 104.125 C889.75711087 104.25521145 894.76846317 102.08523155 900.89453125 99.06640625 C904.16039921 97.5256243 906.62625712 96.86883083 910.1875 97 C914.39956971 97 914.9413162 96.5653477 918 94 C923.00732823 92.23416045 926.98156873 91.91371715 932.25 92.25 C937.68235373 92.35630829 940.82521173 91.97753727 945.375 89 C950.92911875 85.42531906 955.59553603 85.51525094 961.98779297 85.87109375 C966.45914768 86.11295766 969.91496159 85.92678688 974 84 C974.33 83.01 974.66 82.02 975 81 C977.91251685 79.54374158 980.38241248 80.13842425 983.625 80.3125 C994.47351091 80.59290531 1003.45689832 76.1346179 1013.125 71.625 C1016.55781779 70.05571187 1019.17906106 69.46684573 1023 70 C1023.63502441 70.37286133 1024.27004883 70.74572266 1024.92431641 71.12988281 C1026.94792537 72.23530103 1026.94792537 72.23530103 1028.91943359 71.43261719 C1029.57250488 71.05782227 1030.22557617 70.68302734 1030.8984375 70.296875 C1031.62546875 69.89339844 1032.3525 69.48992187 1033.1015625 69.07421875 C1034.22691406 68.41873047 1034.22691406 68.41873047 1035.375 67.75 C1043.63324798 63.0617238 1049.79865116 60.67644731 1059.375 60.875 C1060.20644531 60.88402344 1061.03789063 60.89304687 1061.89453125 60.90234375 C1063.92981337 60.9257378 1065.96494564 60.96160275 1068 61 C1068.226875 60.38125 1068.45375 59.7625 1068.6875 59.125 C1070.45124139 56.2694187 1071.7856296 55.88518128 1075 55 C1078.51326783 54.71236404 1082.00381523 54.62341248 1085.52734375 54.5390625 C1089.60486411 53.90610658 1091.60429533 52.27691394 1095 50 C1098.7265625 49.20703125 1098.7265625 49.20703125 1102.625 48.8125 C1108.43444748 48.44146559 1108.43444748 48.44146559 1114 47 C1115.28436734 45.0162233 1115.28436734 45.0162233 1116 43 C1116.99257812 43.06960938 1117.98515625 43.13921875 1119.0078125 43.2109375 C1128.24636833 43.65135899 1134.80001699 42.49720095 1143.109375 38.41015625 C1147.14112827 36.44331445 1149.31122952 35.95483472 1153.8125 36.25 C1158.03429034 36.33631913 1160.13799689 34.91206723 1163.26171875 32.19140625 C1167.01319604 29.62016901 1171.40029048 29.91433828 1175.7890625 30.078125 C1177.45001953 30.11679687 1177.45001953 30.11679687 1179.14453125 30.15625 C1181.44190125 30.21813202 1183.73890454 30.29593421 1186.03515625 30.390625 C1193.19649564 30.52308908 1198.23417526 29.57235782 1204.57568359 26.18261719 C1209.69868048 23.68354398 1214.67441235 23.97488802 1220.25 24.125 C1227.588395 24.22270978 1234.03303237 23.86820322 1240.171875 19.4296875 C1244.10702114 17.44037329 1247.64782289 17.51168484 1252 17.4375 C1258.22993974 17.30096723 1262.95118238 17.10257847 1268.24214172 13.45373535 C1271.52574433 11.72286715 1273.6770451 11.60804514 1277.37573242 11.58007812 C1278.64442673 11.56416626 1279.91312103 11.54825439 1281.22026062 11.53186035 C1282.59866276 11.53059249 1283.97706628 11.53041662 1285.35546875 11.53125 C1286.78168535 11.52414075 1288.20789911 11.51644064 1289.6341095 11.50817871 C1292.6224461 11.4947472 1295.61051866 11.49315746 1298.59887695 11.49902344 C1302.40406387 11.50489783 1306.20796524 11.47441828 1310.01290417 11.43390656 C1312.96003384 11.4078778 1315.90686099 11.40516609 1318.85408974 11.40879822 C1320.25535608 11.40711896 1321.65663824 11.39759296 1323.05779076 11.37965393 C1330.98992746 11.28932036 1337.03813749 11.67932524 1343.89497375 15.88287354 C1347.49633198 17.79409559 1351.02551577 17.49619928 1355 17.25 C1356.56370921 17.2037748 1358.1275175 17.16078304 1359.69140625 17.12109375 C1360.43148926 17.09644043 1361.17157227 17.07178711 1361.93408203 17.04638672 C1364.61901545 16.98610105 1367.26118816 17.09635147 1369.9375 17.3125 C1370.66839844 17.37050781 1371.39929687 17.42851563 1372.15234375 17.48828125 C1374.61793408 18.17114031 1375.50073236 18.91965525 1377 21 C1377.73046875 23.8125 1377.73046875 23.8125 1378.1875 27 C1378.34605469 28.051875 1378.50460938 29.10375 1378.66796875 30.1875 C1379 33 1379 33 1379 36 C1379.77085937 36.09796875 1380.54171875 36.1959375 1381.3359375 36.296875 C1382.33882812 36.44640625 1383.34171875 36.5959375 1384.375 36.75 C1385.37273438 36.88921875 1386.37046875 37.0284375 1387.3984375 37.171875 C1390 38 1390 38 1391.32421875 39.73828125 C1392.63527303 44.12614499 1392.68754595 48.48756248 1392 53 C1390.55288424 55.3597567 1389.2811991 56.34613065 1387 58 C1387.268125 58.515625 1387.53625 59.03125 1387.8125 59.5625 C1388.204375 60.366875 1388.59625 61.17125 1389 62 C1389.53625 63.093125 1390.0725 64.18625 1390.625 65.3125 C1392.1121487 69.30076242 1392.5362603 71.78652621 1392 76 C1387.66616388 84.66767223 1379.12304515 91.03008009 1371.63671875 96.8828125 C1368.65610669 99.27613359 1365.78263959 101.76080322 1362.9375 104.3125 C1362.01839844 105.13363281 1361.09929688 105.95476562 1360.15234375 106.80078125 C1357.79354044 108.89012292 1357.79354044 108.89012292 1357 112 C1358.62134164 113.96267672 1359.88532674 114.95221948 1362.25 115.9375 C1365.72555875 116.01648997 1367.40859641 114.88716265 1370.25390625 113.0078125 C1373.39748936 111.1933954 1376.50192505 110.88450737 1380.08203125 110.859375 C1380.84966797 110.84003906 1381.61730469 110.82070313 1382.40820312 110.80078125 C1383.99909857 110.76717988 1385.59039254 110.74871741 1387.18164062 110.74609375 C1392.52079988 110.57659663 1395.14066575 109.46870099 1399.27075195 106.15405273 C1404.9925024 102.33551337 1414.53483368 103.99778317 1421.109375 104.30273438 C1426.80482023 104.42634934 1429.27112889 103.35737437 1434 100 C1439.93588391 97.97034724 1445.91459432 97.78083108 1452.125 97.6875 C1460.00888378 97.43953039 1466.39529839 95.90971443 1473.7421875 93.1328125 C1476.69590897 92.10573909 1479.15084289 91.60419811 1482.25 91.375 C1485.89367597 91.4399754 1485.89367597 91.4399754 1487.234375 89.6015625 C1492.83704049 84.51949867 1502.90018018 85.64452995 1509.93359375 85.59375 C1511.16610367 85.58234985 1512.39861359 85.57094971 1513.66847229 85.5592041 C1516.26633302 85.54037537 1518.86424075 85.52726459 1521.4621582 85.51953125 C1525.42158402 85.5000782 1529.37894944 85.43795353 1533.33789062 85.375 C1535.86977942 85.36194165 1538.40168296 85.35144003 1540.93359375 85.34375 C1542.10885117 85.3190564 1543.28410858 85.29436279 1544.49497986 85.2689209 C1551.47425137 85.306502 1555.65835524 86.24172786 1561.11830139 90.70446777 C1563.14273001 92.3541412 1563.14273001 92.3541412 1566.8125 92.0625 C1569.97814331 91.19917293 1569.97814331 91.19917293 1572.125 89.375 C1574 88 1574 88 1576.6875 88.25 C1579 89 1579 89 1580 90 C1580.04092937 92.33297433 1580.04241723 94.66705225 1580 97 C1584.29888613 95.48134786 1584.29888613 95.48134786 1588 93 C1589.88217696 92.90255811 1591.76766567 92.86795146 1593.65234375 92.859375 C1594.82216797 92.84003906 1595.99199219 92.82070313 1597.19726562 92.80078125 C1599.65543999 92.76740656 1602.11386613 92.74873577 1604.57226562 92.74609375 C1612.67976405 92.57801686 1618.04713896 91.07855598 1625 87 C1628.22461193 85.92512936 1630.29495925 85.96950893 1633.671875 86.11328125 C1634.81269531 86.14357422 1635.95351562 86.17386719 1637.12890625 86.20507812 C1639.49680613 86.27532327 1641.8642175 86.3656473 1644.23046875 86.47851562 C1651.85924635 86.63585385 1657.09398135 85.32897161 1664.01858521 82.17478943 C1672.24308491 78.68978852 1680.8411912 79.25307322 1689.625 79.375 C1692.18365044 79.39915188 1694.74113757 79.41421368 1697.29989624 79.40542603 C1698.87485555 79.40089032 1700.4500245 79.41522198 1702.02456665 79.45175171 C1707.0354164 79.44927106 1709.41704817 78.4634371 1713 75 C1717.28029934 72.85985033 1722.92368717 73.72578431 1727.625 73.6875 C1728.78902344 73.65849609 1729.95304687 73.62949219 1731.15234375 73.59960938 C1741.65169236 73.52232085 1747.66976328 76.12557193 1755.125 83.3125 C1755.63853027 83.80032959 1756.15206055 84.28815918 1756.68115234 84.79077148 C1758.13190776 86.1823265 1759.5665079 87.59066788 1761 89 C1762.00546875 89.95132813 1762.00546875 89.95132813 1763.03125 90.921875 C1769.12536525 97.19522893 1769.09893971 105.54366197 1769.75390625 113.87109375 C1769.94757122 116.1847087 1769.94757122 116.1847087 1771 119 C1773.29948663 120.14331785 1773.29948663 120.14331785 1776 121 C1785.70029109 124.71168694 1785.70029109 124.71168694 1789.75 127.3125 C1792.85212067 129.25226014 1792.85212067 129.25226014 1796.125 128.9375 C1799.08215245 127.97321116 1801.35028748 126.60377337 1804 125 C1805.32 125 1806.64 125 1808 125 C1808 125.66 1808 126.32 1808 127 C1812.67484365 128.8269138 1816.8828966 129.29335133 1821.84765625 129.30859375 C1823.35482182 129.33373884 1824.86198319 129.35913707 1826.36914062 129.38476562 C1828.72142577 129.413539 1831.07363839 129.43758859 1833.42602539 129.45629883 C1835.71276353 129.47799554 1837.99869796 129.51741455 1840.28515625 129.55859375 C1840.98423599 129.55870956 1841.68331573 129.55882538 1842.40357971 129.5589447 C1846.84658785 129.64860842 1849.30668158 130.63877849 1853 133 C1853.99 132.67 1854.98 132.34 1856 132 C1858.05078125 131.796875 1858.05078125 131.796875 1860.3125 131.75 C1861.42044922 131.71132813 1861.42044922 131.71132813 1862.55078125 131.671875 C1865 132 1865 132 1867.65771484 133.50878906 C1871.55591332 135.24802911 1874.75553896 135.33447203 1878.92578125 135.1875 C1879.67280807 135.17614014 1880.4198349 135.16478027 1881.1894989 135.15307617 C1884.35930993 135.10445646 1887.52791965 135.02024309 1890.69702148 134.93847656 C1910.81581302 134.46465315 1910.81581302 134.46465315 1916.96484375 139.66015625 C1920.45342988 141.95686458 1924.4843328 141.40415532 1928.5625 141.4375 C1935.49533465 141.62688778 1941.23987625 142.20924897 1947.66796875 145.0234375 C1950.75078047 146.31439718 1953.83805767 146.87240282 1957.125 147.41015625 C1959.46748029 148.14706151 1960.51152708 149.06033373 1962 151 C1962 151.99 1962 152.98 1962 154 C1961.21753906 154.23074219 1960.43507813 154.46148438 1959.62890625 154.69921875 C1958.61699219 155.02535156 1957.60507813 155.35148438 1956.5625 155.6875 C1955.04849609 156.15736328 1955.04849609 156.15736328 1953.50390625 156.63671875 C1950.78808747 157.76879744 1950.78808747 157.76879744 1950.02734375 160.45703125 C1949.75842768 163.24822377 1949.75842768 163.24822377 1952 166 C1954.27171 166.44313829 1954.27171 166.44313829 1956.90234375 166.37109375 C1958.36124023 166.39719727 1958.36124023 166.39719727 1959.84960938 166.42382812 C1961.90428334 166.43292535 1963.95897819 166.43814856 1966.01367188 166.43945312 C1966.98755859 166.45814453 1967.96144531 166.47683594 1968.96484375 166.49609375 C1969.8580835 166.49794678 1970.75132324 166.4997998 1971.67163086 166.50170898 C1974 167 1974 167 1975.80688477 168.80883789 C1977 171 1977 171 1977.125 174.5625 C1976 178 1976 178 1972.75 179.9375 C1969.5567681 180.84224904 1967.26944678 181.29722243 1964 181 C1964.26676204 182.98491642 1964.26676204 182.98491642 1965 185 C1965.99 185.33 1966.98 185.66 1968 186 C1969.28125 188.65234375 1969.28125 188.65234375 1970.5 191.9375 C1972.18012586 196.7731114 1972.18012586 196.7731114 1976 200 C1975.67 201.65 1975.34 203.3 1975 205 C1964.57530748 205.99573299 1954.3067069 206.03802339 1943.84570312 205.78515625 C1942.66041016 205.77097656 1941.47511719 205.75679687 1940.25390625 205.7421875 C1939.19502197 205.7201123 1938.1361377 205.69803711 1937.04516602 205.67529297 C1933.46888858 206.05663258 1931.10948181 207.23364427 1928 209 C1927.2575 209.4125 1926.515 209.825 1925.75 210.25 C1923.67889774 212.00304465 1923.67889774 212.00304465 1923.28515625 215.375 C1922 219 1922 219 1919.13671875 221.109375 C1917.42935547 221.92148437 1917.42935547 221.92148437 1915.6875 222.75 C1914.55699219 223.30171875 1913.42648438 223.8534375 1912.26171875 224.421875 C1911.18535156 224.94265625 1910.10898438 225.4634375 1909 226 C1907.700625 226.81404297 1907.700625 226.81404297 1906.375 227.64453125 C1903.29128918 229.40447805 1900.45980931 229.76974217 1896.98828125 230.27734375 C1894.83818286 230.83652716 1894.83818286 230.83652716 1893.734375 232.8984375 C1892.87312136 235.36308888 1892.92992009 237.40704336 1893 240 C1892 241 1892 241 1888.85717773 241.11352539 C1887.46597303 241.11336633 1886.07476239 241.10767506 1884.68359375 241.09765625 C1883.95253922 241.0962413 1883.22148468 241.09482635 1882.46827698 241.09336853 C1880.12464368 241.08775408 1877.78110461 241.07519922 1875.4375 241.0625 C1873.85221492 241.05748686 1872.26692834 241.05292363 1870.68164062 241.04882812 C1866.7877239 241.03777997 1862.89387795 241.02050572 1859 241 C1857.35 238.03 1855.7 235.06 1854 232 C1848.18537738 235.41800679 1848.18537738 235.41800679 1845.25 241 C1846.15448526 244.61794105 1847.85125245 246.97832376 1850 250 C1850 250.99 1850 251.98 1850 253 C1848.824375 253.2475 1847.64875 253.495 1846.4375 253.75 C1845.77621094 253.88921875 1845.11492188 254.0284375 1844.43359375 254.171875 C1842 254 1842 254 1839.13671875 252.04296875 C1833.48344042 248.58468897 1826.77443126 249.46429091 1820.375 249.5625 C1818.41046875 249.55186523 1818.41046875 249.55186523 1816.40625 249.54101562 C1808.21967565 249.51795408 1808.21967565 249.51795408 1801 253 C1793.19616454 255.70745312 1784.68904181 256.461688 1777.0625 253.0625 C1775.70760113 252.37644413 1774.35334073 251.68912442 1773 251 C1772.01 250.67 1771.02 250.34 1770 250 C1767.30566683 251.87197454 1767.30566683 251.87197454 1765 254 C1762.53199953 252.84826645 1760.95216435 251.95216435 1759 250 C1755.10376961 249.51521182 1751.17293358 249.6295936 1747.25 249.625 C1746.16460938 249.60050781 1745.07921875 249.57601563 1743.9609375 249.55078125 C1737.54153867 249.52723822 1733.95881214 249.88339881 1729 254 C1726.67126625 254.68255989 1724.33817209 255.35050775 1722 256 C1721.319375 256.53625 1720.63875 257.0725 1719.9375 257.625 C1717.10853705 259.63265113 1715.40916788 259.467925 1712 259 C1710.31037979 258.0902045 1708.62314706 257.17135118 1706.9921875 256.16015625 C1704.68049541 254.81393556 1702.33622067 253.7355272 1699.875 252.6875 C1699.06804688 252.34074219 1698.26109375 251.99398438 1697.4296875 251.63671875 C1694.55799416 250.88416889 1692.81002604 251.09087393 1690 252 C1689.67 252.66 1689.34 253.32 1689 254 C1685.18888378 254.25786792 1681.37644732 254.47598512 1677.5625 254.6875 C1676.49322266 254.76033203 1675.42394531 254.83316406 1674.32226562 254.90820312 C1666.20220218 255.3303471 1659.84458702 254.56305801 1653 250 C1650.76020456 249.71460366 1650.76020456 249.71460366 1648.2890625 249.76171875 C1647.37382812 249.74560547 1646.45859375 249.72949219 1645.515625 249.71289062 C1643.59642114 249.69603275 1641.67707927 249.69072861 1639.7578125 249.69726562 C1632.72854948 249.54424094 1632.72854948 249.54424094 1629.05078125 246.796875 C1627.07952607 244.10845842 1625.25960527 241.43170676 1623.5625 238.5625 C1621.5087341 235.21279885 1619.60199625 232.38726368 1616.6875 229.75 C1614 227 1614 227 1613 223.25 C1612.32376422 219.80935828 1612.32376422 219.80935828 1609.375 218.3125 C1605.20812584 217.92667832 1603.4958626 219.09089325 1599.95703125 221.09375 C1596.99530966 222.46524583 1595.01890719 222.05310716 1592 221 C1591.59418701 220.49460693 1591.18837402 219.98921387 1590.77026367 219.46850586 C1586.91938637 216.2740462 1580.39806243 217.52552763 1575.54125977 217.55395508 C1573.33708474 217.56240574 1571.13555557 217.53380803 1568.93164062 217.50195312 C1561.42442113 217.46471631 1555.41500233 217.66684748 1549 222 C1548.34 222.66 1547.68 223.32 1547 224 C1544.25 224.4375 1544.25 224.4375 1541 224 C1538.94720004 222.39881603 1536.94348501 220.73223664 1535 219 C1532.07577139 217.98813391 1529.36445163 217.87577043 1526.28588867 217.87402344 C1524.88743965 217.86831329 1524.88743965 217.86831329 1523.46073914 217.86248779 C1521.95456779 217.86094696 1521.95456779 217.86094696 1520.41796875 217.859375 C1518.26626563 217.84102677 1516.11457266 217.82145464 1513.96289062 217.80078125 C1510.59072948 217.77200313 1507.21921511 217.75000464 1503.84692383 217.74951172 C1481.13649204 217.72603147 1481.13649204 217.72603147 1470.15869141 213.13452148 C1463.43772163 210.72052036 1455.58771081 210.31054888 1449.046875 213.390625 C1447.36899958 214.46567092 1445.71038252 215.571723 1444.078125 216.71484375 C1442 218 1442 218 1438.6875 218.125 C1436 217 1436 217 1433.375 214.875 C1431.2562531 212.77563675 1431.2562531 212.77563675 1429.11328125 213.109375 C1426.28406303 214.30172575 1424.88005257 216.11350002 1422.8125 218.375 C1417.76550045 223.09590854 1413.27651958 224.03061503 1406.6809082 224.82763672 C1400.2692601 225.69775371 1395.24629692 227.92093633 1389.61669922 231.04516602 C1380.00596426 236.3721057 1372.24918424 237.35750328 1361.25 237 C1358.85978817 236.92330871 1356.46908977 236.86026622 1354.078125 236.8125 C1353.03043945 236.77769531 1351.98275391 236.74289062 1350.90332031 236.70703125 C1347.51852624 237.04858464 1345.76577893 238.0664127 1343 240 C1338.831858 242.77876134 1335.14447369 242.38335783 1330.2265625 242.55859375 C1326.0229357 243.13366618 1323.39656184 244.66766683 1320.34375 247.58007812 C1317.03561894 249.58425419 1313.91691445 249.40292228 1310.1640625 249.37109375 C1308.60937282 249.38847839 1307.05468537 249.40606275 1305.5 249.42382812 C1303.06213223 249.43388776 1300.62441108 249.43749959 1298.18652344 249.43579102 C1295.82443131 249.43937574 1293.46345489 249.46677187 1291.1015625 249.49609375 C1290.37949615 249.48791122 1289.65742981 249.4797287 1288.91348267 249.47129822 C1283.77744275 249.54628487 1281.05600537 250.95949045 1277 254 C1274.4921875 254.29296875 1274.4921875 254.29296875 1271.875 254.1875 C1262.54903578 254.62208523 1250.26625907 259.53145583 1243.08203125 265.62744141 C1240.338779 267.43590343 1238.60607595 267.30196758 1235.34375 267.1875 C1233.68472656 267.15269531 1233.68472656 267.15269531 1231.9921875 267.1171875 C1229.69527711 267.04010997 1227.39840064 266.96201382 1225.1015625 266.8828125 C1216.33321244 266.70056042 1208.80543186 268.01523697 1200.51489258 270.84960938 C1192.25534493 273.62378295 1184.19277194 273.46238658 1175.54882812 273.52734375 C1173.81342773 273.56021484 1173.81342773 273.56021484 1172.04296875 273.59375 C1171.00164795 273.60083984 1169.96032715 273.60792969 1168.88745117 273.61523438 C1164.61996541 274.18389571 1162.0036226 275.9963774 1159 279 C1154.37070733 279.72056538 1149.67760348 279.814286 1145 280 C1143.92999756 280.05099854 1143.92999756 280.05099854 1142.83837891 280.10302734 C1134.03023335 280.48922914 1125.83331192 280.69655901 1118 276 C1117.34 275.34 1116.68 274.68 1116 274 C1113.89269147 273.94726455 1111.78437046 273.90556601 1109.67651367 273.92724609 C1100.8373452 273.96191921 1093.6827719 272.72127957 1085.6875 268.875 C1084.91865479 268.50882568 1084.14980957 268.14265137 1083.35766602 267.76538086 C1075.28454063 263.59170726 1069.72785589 257.93723418 1066.0625 249.625 C1065.77036621 248.96798096 1065.47823242 248.31096191 1065.17724609 247.6340332 C1063.08007745 242.67114169 1061.26652969 238.2783197 1063 233 C1065.03254074 229.40734691 1067.45002501 226.23692946 1070 223 C1070.76382051 221.84233453 1071.51672479 220.67725043 1072.25 219.5 C1074 217 1074 217 1077 215 C1079.91796875 214.5859375 1079.91796875 214.5859375 1083.1875 214.375 C1084.81751953 214.26285156 1084.81751953 214.26285156 1086.48046875 214.1484375 C1087.31191406 214.09945312 1088.14335938 214.05046875 1089 214 C1087.68 212.35 1086.36 210.7 1085 209 C1086.12451727 206.0280615 1087.22293791 203.66559313 1089 201 C1087.26442567 199.26442567 1084.86901892 199.78835025 1082.50390625 199.71875 C1080.83038086 199.66267578 1080.83038086 199.66267578 1079.12304688 199.60546875 C1077.94806641 199.57066406 1076.77308594 199.53585937 1075.5625 199.5 C1073.25117264 199.43130893 1070.93996017 199.35859629 1068.62890625 199.28125 C1067.59838135 199.25095703 1066.56785645 199.22066406 1065.50610352 199.18945312 C1063 199 1063 199 1061 198 C1062.49846794 194.37598787 1064.55788493 192.3682297 1067.5 189.8125 C1068.39074219 189.02875 1069.28148437 188.245 1070.19921875 187.4375 C1071.12347656 186.633125 1072.04773437 185.82875 1073 185 C1081.00462423 177.98442414 1081.00462423 177.98442414 1088 170 C1085.85718065 168.66455456 1085.85718065 168.66455456 1082.6875 169.75 C1079.08031902 170.82274939 1079.08031902 170.82274939 1076.4375 172.5625 C1071.44584393 175.50629717 1066.16411122 175.0026505 1060.56665039 174.78320312 C1050.55290952 174.19970328 1050.55290952 174.19970328 1041.5625 178 C1036.18312706 181.71494176 1031.53054277 181.2128331 1025.25 180.9375 C1014.70597803 180.52364404 1007.94949534 182.61249286 999 188 C988.59398496 194.07518797 988.59398496 194.07518797 984 193 C981.88830401 191.54611407 979.94881503 190.0099961 978.02734375 188.3125 C975.42564953 186.62816617 974.05061946 186.54665717 971 187 C968.74863127 188.21431578 968.74863127 188.21431578 966.6875 190 C965.90632813 190.63550781 965.12515625 191.27101563 964.3203125 191.92578125 C962.09555764 193.91457727 960.08972469 196.00023125 958.0625 198.1875 C953.86274071 202.42013412 949.8887243 204.83010677 944 206 C941.54088615 205.99174794 939.08161155 205.92371481 936.625 205.8125 C924.59270302 205.28563344 912.83917322 210.1826792 902.4375 215.9375 C898.00023713 218.37642108 894.36557659 218.17521166 889.39453125 217.91796875 C885.94884552 218.03601019 884.51314223 219.75139906 882 222 C875.46404461 224.50159354 868.25666751 224.30617056 861.35546875 224.4609375 C857.4652866 225.08590274 856.50544108 226.08355398 854 229 C850.7973163 230.06756123 848.486289 230.03373591 845.125 230.0625 C838.24120798 230.52141947 834.00659987 232.93228186 828.4609375 236.89453125 C820.07149504 242.39359082 811.45436412 243.55634896 801.625 243.5625 C792.73638147 243.25338296 792.73638147 243.25338296 785 247 C784.40316406 247.43441406 783.80632812 247.86882812 783.19140625 248.31640625 C782.10585095 249.14684304 781.02250833 249.9801803 779.94140625 250.81640625 C774.90499305 253.88689559 770.16490499 254.18148041 764.375 254.25 C757.47534617 254.47798305 752.91379635 256.17920291 746.87890625 259.65234375 C742.81336648 261.55547974 739.09578309 261.51695397 734.66796875 261.66015625 C731.10831384 262.11358228 729.54906319 263.59492588 726.90625 265.875 C724.265272 267.43360997 722.04510373 267.37940183 719 267.5 C714.00311673 267.72180986 711.83348129 268.41741697 708.109375 271.59765625 C703.12532443 274.91112691 696.69066867 276.25044167 691 278 C690.06486572 278.3518335 689.12973145 278.70366699 688.16625977 279.06616211 C684.80098285 280.05869694 682.21418322 280.1730059 678.71875 280.0546875 C677.54699219 280.03019531 676.37523437 280.00570313 675.16796875 279.98046875 C672.72241934 279.91014944 670.27708198 279.83202205 667.83203125 279.74609375 C659.10785898 279.54223595 659.10785898 279.54223595 652 284 C648.49601692 286.33598872 647.20205387 286.2146611 643.07421875 286.125 C641.89174561 286.10791992 640.70927246 286.09083984 639.4909668 286.07324219 C638.23582275 286.04907227 636.98067871 286.02490234 635.6875 286 C621.49421963 285.87457809 609.26558039 287.23075707 595.609375 291.140625 C592.17589383 291.95812052 589.14110469 292.22325876 585.625 292.3125 C577.26540882 292.76315182 572.59390556 298.34366246 567 304 C562.41718573 301.96319366 558.96183579 299.03582316 555.5625 295.375 C551.74590951 291.83767223 548.79970494 290.93334426 543.625 291.125 C540.63809515 291.84597703 538.91113256 292.50098883 536.3125 293.9375 C529.85894626 297.38940084 522.5094048 297.83438395 515.3125 298.3125 C511.72429402 298.64341954 509.44026981 299.74862067 506.375 301.625 C503.17521226 303.54821737 502.13715278 303.99771412 498.25 304.0625 C486.75633504 300.30495568 481.57662371 286.63512138 476.46411133 276.60131836 C476.05829834 275.80733643 475.65248535 275.01335449 475.234375 274.1953125 C474.87569336 273.48391113 474.51701172 272.77250977 474.14746094 272.03955078 C472.92836409 269.87267098 471.53111782 267.95593981 470 266 C471.09901242 263.52722205 472.21512286 261.75126419 474 259.6875 C478.56183729 253.55753114 478.26228915 246.89690856 478.125 239.5625 C478.11146484 238.17901367 478.11146484 238.17901367 478.09765625 236.76757812 C478.0742766 234.51144191 478.04150916 232.25586316 478 230 C477.30132813 230.3609375 476.60265625 230.721875 475.8828125 231.09375 C474.97273438 231.5578125 474.06265625 232.021875 473.125 232.5 C472.22007813 232.9640625 471.31515625 233.428125 470.3828125 233.90625 C468 235 468 235 466 235 C465.896875 235.598125 465.79375 236.19625 465.6875 236.8125 C464.91123545 239.28243264 463.92911079 240.32251235 462 242 C460.68 241.34 459.36 240.68 458 240 C458.1875 238.1875 458.1875 238.1875 459 236 C461.5625 234.25 461.5625 234.25 464 233 C455.01965698 228.93342957 447.5878329 228.77175016 438.3125 232.25 C436.19903719 233.14502518 434.0938736 234.06005933 432 235 C431.19949219 235.33386719 430.39898438 235.66773438 429.57421875 236.01171875 C424.6679571 238.20151915 422.30425275 240.80270597 419 245 C414.64563835 248.07991434 410.93797546 249.09562884 405.6640625 249.17578125 C404.84679688 249.19962891 404.02953125 249.22347656 403.1875 249.24804688 C401.4872298 249.29081282 399.78663224 249.32217347 398.0859375 249.34179688 C392.49201737 249.53089952 389.57210923 250.54479174 385 254 C382.3515625 254.984375 382.3515625 254.984375 379.625 255.75 C372.81191538 257.87855467 366.68584609 261.02073628 360.37109375 264.29296875 C355.86474476 266.57486273 352.86105179 267.03427476 347.84448242 267.03588867 C339.43905368 267.12881815 334.66852585 267.90248391 328.38671875 273.875 C321.00926201 280.44347212 310.73309087 282.88065633 301.35546875 285.2644043 C294.71645031 286.96040132 288.79219454 289.588387 282.66088867 292.65112305 C276.34514977 295.76519692 270.80016171 297.69048511 263.74609375 298.54296875 C260.94896196 299.00849424 258.81982338 299.82412408 256.25 301 C251.94790965 302.88518566 247.82362089 303.49219198 243.1875 303.9375 C236.5383622 304.58061205 231.06819965 306.28332155 224.88671875 308.9140625 C222.20609596 309.92246999 220.20706681 310.3071748 217.375 310.4375 C213.40564882 310.65519751 210.95613187 312.02157454 207.5625 314.0625 C202.77713666 316.8923383 199.8482878 317.26950105 194.40625 316.890625 C190.69750855 317.05920416 188.22595228 318.78656422 185.125 320.703125 C176.5426014 325.94091238 164.7537479 328.37795168 154.875 329.75 C149.19865165 330.7751599 144.78514504 333.97152844 140.078125 337.125 C134.71089035 340.39438151 130.34910021 341.16828315 124.125 341.25 C117.24885463 341.59516084 111.91695509 343.28270731 105.59619141 345.90380859 C100.40177981 348.00818474 96.53553835 348.59309339 91 348 C90.72542969 348.60714844 90.45085938 349.21429687 90.16796875 349.83984375 C87.65771103 354.4825612 83.03361123 357.44070437 78.24145508 359.42211914 C72.32792841 360.94671533 65.8245188 360.04781655 59.77929688 359.79492188 C52.26981813 359.61602087 46.71817821 360.60288024 40 364 C37.57463764 365.21268118 35.97324889 365.15274092 33.26245117 365.19287109 C31.78532906 365.21696548 31.78532906 365.21696548 30.27836609 365.24154663 C25.77274219 365.28595795 21.26726614 365.32705968 16.76147461 365.35009766 C14.38409642 365.36666249 12.00676814 365.39395912 9.62963867 365.43212891 C6.20465213 365.48685255 2.78083341 365.50876542 -0.64453125 365.5234375 C-1.70613968 365.54610687 -2.76774811 365.56877625 -3.86152649 365.59213257 C-11.22438556 365.57102583 -11.22438556 365.57102583 -15.15893555 362.67431641 C-17.20902638 359.69636985 -17.75016293 357.58099796 -18 354 C-19.5159375 355.2065625 -19.5159375 355.2065625 -21.0625 356.4375 C-24.65903637 359.00021417 -27.51227732 359.91532599 -32 360 C-34.14453125 359.36328125 -34.14453125 359.36328125 -36 358 C-36.6875 355.390625 -36.6875 355.390625 -37 352.25 C-38.20728875 343.59260462 -42.63973288 338.68664277 -49 333 C-49.66 332.67 -50.32 332.34 -51 332 C-51 331.01 -51 330.02 -51 329 C-47.37 327.35 -43.74 325.7 -40 324 C-40.680625 322.948125 -41.36125 321.89625 -42.0625 320.8125 C-43.53032585 318.54404187 -43.99241185 317.26516368 -44.0703125 314.54296875 C-42.45523165 310.70567811 -39.32675233 309.38537139 -35.8125 307.5 C-26.53712177 302.47878274 -26.53712177 302.47878274 -19.625 294.6875 C-19.08875 293.800625 -18.5525 292.91375 -18 292 C-18.825 291.566875 -19.65 291.13375 -20.5 290.6875 C-21.325 290.130625 -22.15 289.57375 -23 289 C-23 288.01 -23 287.02 -23 286 C-24.36125 286.680625 -24.36125 286.680625 -25.75 287.375 C-27.35875 288.179375 -27.35875 288.179375 -29 289 C-29.639375 289.474375 -30.27875 289.94875 -30.9375 290.4375 C-33 291 -33 291 -36.5 289.375 C-39.36383211 287.55200149 -41.81336454 285.62396256 -44 283 C-44 282.34 -44 281.68 -44 281 C-38.3151311 277.52591345 -34.80867017 276.5944883 -28.19921875 277.4453125 C-26 278 -26 278 -23 280 C-22.67 280.99 -22.34 281.98 -22 283 C-21.195625 283.309375 -20.39125 283.61875 -19.5625 283.9375 C-17 285 -17 285 -15.6875 287.125 C-15.460625 287.74375 -15.23375 288.3625 -15 289 C-13.02463255 288.65213292 -13.02463255 288.65213292 -11 288 C-9.67770811 285.35541621 -9.90322806 283.32238699 -9.9375 280.375 C-9.94652344 279.37210938 -9.95554687 278.36921875 -9.96484375 277.3359375 C-9.97644531 276.56507813 -9.98804688 275.79421875 -10 275 C-11.10859375 274.79503906 -12.2171875 274.59007812 -13.359375 274.37890625 C-14.82292867 274.10683538 -16.28646967 273.83469638 -17.75 273.5625 C-18.84441406 273.36043945 -18.84441406 273.36043945 -19.9609375 273.15429688 C-23.33546675 272.52540733 -26.67634694 271.85677827 -30 271 C-30 268 -30 268 -28.85546875 266.5703125 C-24.40462516 262.71360962 -19.95321529 260.46819522 -14.453125 258.37109375 C-11.43778397 256.68576779 -10.53205793 255.05474548 -9 252 C-8.443125 250.948125 -7.88625 249.89625 -7.3125 248.8125 C-5.85903818 246.2152185 -5.85903818 246.2152185 -6 244 C-8.79019864 243.66486406 -8.79019864 243.66486406 -12 244 C-12.7425 244.61875 -13.485 245.2375 -14.25 245.875 C-17.14812694 248.11446173 -18.36715872 248.39171805 -21.875 248.9375 C-26.35013357 249.67341085 -28.85831515 251.03149949 -32.3515625 253.8359375 C-34.97530386 255.68872169 -37.91750896 256.21536592 -41 257 C-41.92554688 257.50144531 -42.85109375 258.00289062 -43.8046875 258.51953125 C-47.28021151 260.12982905 -49.76270175 260.3555585 -53.5625 260.5625 C-61.29017388 261.50608965 -65.19117696 264.72356612 -70.93359375 269.52734375 C-80.41552288 277.17328151 -92.50632026 279.1074586 -104.17016602 281.43261719 C-106.18802056 281.82315851 -106.18802056 281.82315851 -107 283.875 C-107.33 284.57625 -107.66 285.2775 -108 286 C-112.09875944 290.10937799 -117.80037338 290.37824899 -123.26953125 291.37304688 C-129.4593674 292.60380464 -133.41731673 294.95836985 -138.38671875 298.88671875 C-143.82228883 303.1410444 -147.45625293 304.52390632 -154.3125 304.6953125 C-157.3355202 305.03803863 -158.92591132 305.918008 -161.5 307.5 C-166.54162432 310.36934889 -170.97747652 310.32153807 -176.625 310.375 C-184.37432225 310.40091192 -184.37432225 310.40091192 -190.875 314.3125 C-191.94418417 315.51780716 -192.98948678 316.74509635 -194 318 C-199.15496721 322.25845117 -200.92580268 323.04714112 -207.625 322.6875 C-216.62690854 322.43395616 -223.86599045 325.45628929 -232 329 C-232.90363281 329.350625 -233.80726563 329.70125 -234.73828125 330.0625 C-236.8330368 330.93079246 -238.62688901 331.955839 -240.5625 333.125 C-246.75091196 336.21920598 -253.5066999 336.08211481 -260.0390625 334.05859375 C-261.88682824 333.34389191 -263.71929656 332.58728344 -265.52734375 331.77734375 C-268.47096017 330.85194143 -270.07639482 331.09705015 -273 332 C-273.825 332.53625 -274.65 333.0725 -275.5 333.625 C-280.94476711 335.76401565 -286.29111601 334.85160148 -292 334 C-292.66 333.67 -293.32 333.34 -294 333 C-294 332.34 -294 331.68 -294 331 C-296.24875747 330.13149826 -296.24875747 330.13149826 -299 330 C-300.67523395 331.32255312 -302.34106818 332.65705519 -304 334 C-307.69480735 334.8210683 -310.84559906 335.00798626 -314.625 334.8125 C-318.76357985 335.0424211 -319.87101156 336.43262487 -323 339 C-325.8125 339.75 -325.8125 339.75 -329 339 C-331.20356061 337.16737945 -333.10738062 335.19526418 -335.04296875 333.08203125 C-336.72563169 331.29189283 -338.3330556 329.92932586 -340.3125 328.5 C-343.27117046 325.7477484 -344.10656774 323.86335072 -345.1640625 320.0625 C-345.94645605 317.80828287 -345.94645605 317.80828287 -348.0078125 315.70703125 C-350.49223669 312.33113721 -350.78593138 309.8254452 -351.25 305.6875 C-351.47429687 303.80611328 -351.47429687 303.80611328 -351.703125 301.88671875 C-351.80109375 300.93410156 -351.8990625 299.98148438 -352 299 C-353.08667969 298.76216797 -353.08667969 298.76216797 -354.1953125 298.51953125 C-361.81527534 296.68058022 -366.00119504 294.77269012 -370.9375 288.5625 C-372.30243163 285.27060608 -371.9789385 283.38863327 -371 280 C-370.34 279.34 -369.68 278.68 -369 278 C-365.03982057 278.28286996 -362.15450667 280.77750666 -359 283 C-358.67 282.01 -358.34 281.02 -358 280 C-356.57107422 280.19529297 -356.57107422 280.19529297 -355.11328125 280.39453125 C-348.40478559 281.43870111 -348.40478559 281.43870111 -341.9921875 280.0234375 C-338.81052593 276.76556846 -337.86054849 273.96298472 -337.875 269.5625 C-337.87113281 268.38880859 -337.87113281 268.38880859 -337.8671875 267.19140625 C-337.91617452 264.82104653 -337.91617452 264.82104653 -339 262 C-344.61 261.34 -350.22 260.68 -356 260 C-355.1544817 254.92689018 -354.23889908 252.38045472 -352 248 C-352 247.01 -352 246.02 -352 245 C-355.6628698 245.37567895 -358.71931574 246.21820123 -362.04296875 247.734375 C-363.23466675 248.27529785 -363.23466675 248.27529785 -364.45043945 248.82714844 C-365.29179443 249.21418945 -366.13314941 249.60123047 -367 250 C-367.83942139 250.38446289 -368.67884277 250.76892578 -369.54370117 251.16503906 C-371.34793199 251.99321059 -373.15136149 252.82312948 -374.95410156 253.65454102 C-379.15251007 255.58846188 -383.35832613 257.50608545 -387.56347656 259.42529297 C-389.89615194 260.49418727 -392.22615188 261.56893582 -394.55371094 262.64892578 C-398.11319472 264.30005824 -401.6807945 265.93250822 -405.25 267.5625 C-406.34296387 268.07490234 -407.43592773 268.58730469 -408.56201172 269.11523438 C-414.90244121 271.9873204 -420.57410333 273.5672465 -427.45947266 274.5090332 C-430.80189575 275.15496947 -432.64466404 276.44889588 -435.0625 278.8125 C-442.65383012 285.50931033 -451.76406664 288.3094408 -461.13671875 291.80078125 C-464.17209453 292.945624 -464.17209453 292.945624 -467.125 295.25 C-470.2481316 297.15103663 -471.67561477 297.25330466 -475.25 297.4375 C-482.79222164 297.88839369 -488.88034113 300.67653314 -494.125 306.125 C-497.56947939 309.36493785 -501.29362107 309.74152685 -505.8125 310.375 C-512.62680886 311.35435303 -516.39975874 313.20258262 -521.56640625 317.93359375 C-535.83761789 330.05152466 -554.47945078 329.20793564 -572.08203125 329.01953125 C-572.82137091 329.01257421 -573.56071056 329.00561718 -574.32245445 328.99844933 C-578.22214618 328.96142046 -582.12169001 328.91760937 -586.02124023 328.86791992 C-590.0231674 328.81826873 -594.02489224 328.79227519 -598.0270586 328.77148914 C-601.13378582 328.75106316 -604.24012867 328.71317747 -607.34662437 328.6706295 C-608.82201722 328.65340437 -610.29750113 328.64262095 -611.77298927 328.63868141 C-619.80440867 328.61090748 -626.01738624 328.28697801 -633 324 C-637.66152685 323.38997303 -640.32198711 324.36042259 -644.375 326.625 C-648.50687368 328.82934948 -652.52038322 330.58434373 -656.94433594 332.06005859 C-664.74150794 334.67701917 -669.85750125 338.01586157 -676.0078125 343.6328125 C-679.24625391 346.19481706 -682.13975596 347.44746993 -686 348.875 C-691.63504219 351.05231597 -695.03662773 353.53852235 -699.0625 357.875 C-708.06763524 367.52209133 -718.4176106 372.39444862 -730.55566406 377.07128906 C-737.97777866 379.93286105 -744.93882871 383.3301015 -752 387 C-753.43469772 387.71784992 -754.87097609 388.43254705 -756.30859375 389.14453125 C-757.03723633 389.50546875 -757.76587891 389.86640625 -758.51660156 390.23828125 C-759.93098953 390.93815834 -761.34568791 391.63740858 -762.76074219 392.3359375 C-765.63270725 393.76540928 -768.32636548 395.21757699 -771 397 C-772.70501461 397.12342698 -774.4155652 397.17559586 -776.125 397.1875 C-785.43491267 397.78005258 -795.26574593 401.84383062 -803 407 C-805.4375 407.3125 -805.4375 407.3125 -808 407 C-808.86625 406.2575 -808.86625 406.2575 -809.75 405.5 C-812.77945502 403.48036332 -815.09704195 403.34112658 -818.6953125 403.44140625 C-822.29259206 404.31328926 -824.0015043 406.52827859 -826.37890625 409.24609375 C-829.84005658 412.99080821 -834.12056749 414.21162008 -839 415 C-840.93651019 415.06533435 -842.87502861 415.08584303 -844.8125 415.0625 C-845.78832031 415.05347656 -846.76414062 415.04445313 -847.76953125 415.03515625 C-848.87361328 415.01775391 -848.87361328 415.01775391 -850 415 C-850 415.99 -850 416.98 -850 418 C-850.66 418 -851.32 418 -852 418 C-852 418.66 -852 419.32 -852 420 C-853.98 420 -855.96 420 -858 420 C-858 418.35 -858 416.7 -858 415 C-856.35 414.34 -854.7 413.68 -853 413 C-853 412.01 -853 411.02 -853 410 C-875.67156723 409.35518084 -898.31728989 408.81402924 -921 409 C-920.50376019 403.43689059 -918.36042562 399.62698097 -915.5625 394.9375 C-914.74844826 393.55245462 -913.9371746 392.16577208 -913.12890625 390.77734375 C-912.76869385 390.17140381 -912.40848145 389.56546387 -912.03735352 388.94116211 C-910.84701708 386.7137286 -909.93796264 384.3449066 -909 382 C-912.96 380.02 -916.92 378.04 -921 376 C-920 372 -920 372 -918 370 C-915.38964844 369.74462891 -915.38964844 369.74462891 -912.109375 369.7265625 C-910.33240234 369.695625 -910.33240234 369.695625 -908.51953125 369.6640625 C-906.02220297 369.63818345 -903.52478411 369.61985744 -901.02734375 369.609375 C-892.18588252 369.5420803 -892.18588252 369.5420803 -885 365 C-883.17380913 362.48635244 -883.17380913 362.48635244 -882 360 C-881.67 359.34 -881.34 358.68 -881 358 C-880.93049459 356.45976004 -880.91547643 354.91665012 -880.9375 353.375 C-880.958125 351.93125 -880.97875 350.4875 -881 349 C-886.445 347.515 -886.445 347.515 -892 346 C-892.495 344.02 -892.495 344.02 -893 342 C-891.0625 339.375 -891.0625 339.375 -889 337 C-889 336.34 -889 335.68 -889 335 C-890.21816406 335.03480469 -891.43632813 335.06960938 -892.69140625 335.10546875 C-894.31509028 335.13362512 -895.93878935 335.16092329 -897.5625 335.1875 C-898.76229492 335.22520508 -898.76229492 335.22520508 -899.98632812 335.26367188 C-905.44930376 335.33056545 -909.1432355 334.53368661 -914 332 C-915 331 -915 331 -915.375 328.25 C-914.88032442 323.96281161 -913.00177388 323.00177388 -910 320 C-909.31990373 318.00992227 -909.31990373 318.00992227 -908.9375 315.875 C-908 312 -908 312 -906.42578125 310.33203125 C-903.15210197 308.53440704 -899.90412256 308.18896442 -896.25 307.8125 C-895.55261719 307.73064453 -894.85523438 307.64878906 -894.13671875 307.56445312 C-892.42573224 307.36522867 -890.71299963 307.18110071 -889 307 C-889.66 306.0925 -890.32 305.185 -891 304.25 C-893 301 -893 301 -893 297 C-891.82630859 296.69255859 -891.82630859 296.69255859 -890.62890625 296.37890625 C-889.61699219 296.10949219 -888.60507812 295.84007812 -887.5625 295.5625 C-886.04849609 295.16224609 -886.04849609 295.16224609 -884.50390625 294.75390625 C-882.08247999 294.24021923 -882.08247999 294.24021923 -881 293 C-881.11272536 291.47820763 -881.24040333 289.95751407 -881.375 288.4375 C-881.4315212 284.04768714 -880.70024721 281.93686559 -877.8125 278.625 C-875.72627395 276.50512514 -873.75884156 274.83174992 -871.3125 273.125 C-868.20660107 270.27093071 -867.31629898 267.19108633 -865.9921875 263.2421875 C-865 261 -865 261 -862 259 C-859.73828125 258.5859375 -859.73828125 258.5859375 -857.3125 258.375 C-856.10013672 258.26285156 -856.10013672 258.26285156 -854.86328125 258.1484375 C-854.24839844 258.09945313 -853.63351562 258.05046875 -853 258 C-853.12503906 257.175 -853.25007812 256.35 -853.37890625 255.5 C-853.65631806 250.21146842 -853.66475869 246.1424634 -850.36474609 241.89550781 C-846.84647401 238.26358013 -843.0459573 235.0310423 -839.171875 231.7890625 C-834.53557507 227.82897581 -831.41774404 223.41328281 -829.08105469 217.78759766 C-828.72430664 217.19769043 -828.36755859 216.6077832 -828 216 C-826.88625 215.87625 -825.7725 215.7525 -824.625 215.625 C-820.80464177 215.37388039 -820.80464177 215.37388039 -818.75 212.25 C-817.75669551 210.40529166 -816.77071899 208.5564728 -815.80859375 206.6953125 C-813.41588758 203.12950849 -810.49058027 200.48770145 -807.3125 197.625 C-806.68182617 197.04919189 -806.05115234 196.47338379 -805.40136719 195.88012695 C-803.60714615 194.24635157 -801.80523819 192.62158267 -800 191 C-799.22527344 190.30003906 -798.45054687 189.60007812 -797.65234375 188.87890625 C-793.34960462 185.05326756 -788.86389894 181.49745109 -784.296875 177.9921875 C-780.19632207 174.43558547 -777.46202882 170.24700744 -774.6875 165.625 C-769.41752888 157.25835782 -763.09681246 150.26675718 -753.25 147.75 C-750.91956656 147.13810235 -750.91956656 147.13810235 -749 146 C-748.02546126 143.93830915 -747.70509599 142.11437391 -747.359375 139.8671875 C-747 138 -747 138 -745.4375 136.125 C-741.77189062 134.43318029 -737.95786142 133.71884235 -734 133 C-733.9175 132.071875 -733.835 131.14375 -733.75 130.1875 C-733 127 -733 127 -731.31640625 125.40625 C-725.10171723 121.63342024 -717.17092974 120.55181689 -710 121 C-706.10235082 121.41042936 -706.10235082 121.41042936 -704 119.4375 C-702 118 -702 118 -699.75 118.3125 C-699.1725 118.539375 -698.595 118.76625 -698 119 C-698.57344937 121.86724686 -698.8614515 122.8614515 -701 125 C-701.99 125 -702.98 125 -704 125 C-704 129.95 -704 134.9 -704 140 C-699.10586547 138.63386294 -699.10586547 138.63386294 -697.85546875 136.0546875 C-697.52482422 134.97574219 -697.52482422 134.97574219 -697.1875 133.875 C-696.95417969 133.15054688 -696.72085938 132.42609375 -696.48046875 131.6796875 C-696.32191406 131.12539063 -696.16335938 130.57109375 -696 130 C-695.50371094 130.28875 -695.00742187 130.5775 -694.49609375 130.875 C-689.68992145 133.501523 -686.4662716 134.45552263 -681 134 C-681.26683594 133.48566406 -681.53367187 132.97132813 -681.80859375 132.44140625 C-682.73641671 130.54012969 -683.58888283 128.602015 -684.41015625 126.65234375 C-687.2022843 119.72670039 -687.2022843 119.72670039 -692.25 114.5234375 C-694.49805581 113.83231223 -696.68409589 113.39509072 -699 113 C-704.79310345 110.4137931 -704.79310345 110.4137931 -706 108 C-706.07092842 105.7927077 -706.08415025 103.58332548 -706.0625 101.375 C-706.05347656 100.18648437 -706.04445313 98.99796875 -706.03515625 97.7734375 C-706.01775391 96.40058594 -706.01775391 96.40058594 -706 95 C-710.41522109 96.26974972 -710.41522109 96.26974972 -714 99 C-716.625 98.625 -716.625 98.625 -719 98 C-718.67 96.68 -718.34 95.36 -718 94 C-715.525 93.505 -715.525 93.505 -713 93 C-712.67 91.35 -712.34 89.7 -712 88 C-710.02 88 -708.04 88 -706 88 C-705.814375 88.598125 -705.62875 89.19625 -705.4375 89.8125 C-703.32351935 93.02942707 -700.51758673 93.60509492 -697 95 C-695.68 95.99 -694.36 96.98 -693 98 C-692.34 94.7 -691.68 91.4 -691 88 C-689.68 87.67 -688.36 87.34 -687 87 C-684.25 88.9375 -684.25 88.9375 -682 91 C-674.55748855 87.62980614 -667.40103837 82.32629444 -664.4375 74.5625 C-664.18871094 73.73878906 -663.93992187 72.91507813 -663.68359375 72.06640625 C-663 70 -663 70 -661 68 C-658.44132526 67.5342637 -655.95312092 67.16515752 -653.375 66.875 C-652.66859375 66.78863281 -651.9621875 66.70226562 -651.234375 66.61328125 C-649.49049859 66.40118817 -647.7453516 66.19959009 -646 66 C-645.81824219 65.09636719 -645.63648438 64.19273437 -645.44921875 63.26171875 C-645.19785156 62.08222656 -644.94648437 60.90273438 -644.6875 59.6875 C-644.44386719 58.51574219 -644.20023438 57.34398437 -643.94921875 56.13671875 C-643.02722999 53.08998224 -642.58316219 51.78020334 -640 50 C-638.08273693 49.70249366 -636.16169843 49.41690805 -634.23046875 49.23046875 C-628.12029992 48.59912031 -622.9602341 47.07534236 -617.4375 44.375 C-612.60812251 42.05553842 -609.30737478 41.49930427 -604 42 C-603.74089844 41.05640625 -603.74089844 41.05640625 -603.4765625 40.09375 C-601.00194748 32.55639049 -597.11493676 27.69488132 -590 24 C-587.28836614 23.61150253 -584.92684787 23.66830701 -582.203125 23.88671875 C-579.81328145 24.14169834 -579.81328145 24.14169834 -576.9375 23 C-574.04817834 20.01747442 -574.19472923 17.01629029 -574 13 C-573.75 10.625 -573.75 10.625 -573 9 C-571.35244596 8.28740761 -569.68556578 7.61732505 -568 7 C-558.07411444 15.67310389 -558.07411444 15.67310389 -555.25 19.625 C-554.13625 20.800625 -554.13625 20.800625 -553 22 C-549.7438337 22 -547.77949682 21.42518008 -544.9375 19.875 C-542.24609182 18.65952534 -540.76399417 19.07866861 -538 20 C-537.34257813 20.74636719 -537.34257813 20.74636719 -536.671875 21.5078125 C-534.42041678 23.51729157 -532.78865631 23.4942431 -529.8125 23.6875 C-528.91144531 23.75324219 -528.01039063 23.81898438 -527.08203125 23.88671875 C-526.39496094 23.92410156 -525.70789063 23.96148438 -525 24 C-524.67 22.68 -524.34 21.36 -524 20 C-521.625 19.375 -521.625 19.375 -519 19 C-517 21 -517 21 -517 24 C-516.2886792 23.99476318 -515.5773584 23.98952637 -514.84448242 23.98413086 C-511.62549725 23.96335982 -508.40652617 23.95033942 -505.1875 23.9375 C-504.06794922 23.92912109 -502.94839844 23.92074219 -501.79492188 23.91210938 C-500.18520508 23.90727539 -500.18520508 23.90727539 -498.54296875 23.90234375 C-497.0583313 23.89448853 -497.0583313 23.89448853 -495.54370117 23.88647461 C-493 24 -493 24 -490 25 C-489.75 27.25 -489.75 27.25 -490 30 C-492 32.3125 -492 32.3125 -494 34 C-490.05280482 35.70689521 -486.85511826 36.07281672 -482.625 35.9375 C-472.88371985 35.80586108 -467.29460087 39.83673769 -460 46 C-460.33 46.99 -460.66 47.98 -461 49 C-461.66 49 -462.32 49 -463 49 C-463.309375 49.86625 -463.309375 49.86625 -463.625 50.75 C-465.60622895 53.99201101 -467.64044471 55.22859812 -471 57 C-473.99546831 57.59127515 -476.95202788 57.86453457 -480 58 C-479.566875 58.54527344 -479.13375 59.09054687 -478.6875 59.65234375 C-475.23792655 64.32364112 -473.05202031 67.90307802 -473.47265625 73.8125 C-474.24276739 77.00703511 -475.74729519 79.35246496 -477.6328125 82.015625 C-479.42442036 84.61601583 -480.69480855 87.37407352 -482.0078125 90.23828125 C-483.13546897 92.24053743 -484.1993086 93.56733312 -486 95 C-487.175625 95.04125 -488.35125 95.0825 -489.5625 95.125 C-495.90290827 95.68342128 -499.69075541 100.75937395 -504 105 C-506.05282434 106.84171829 -508.13111633 108.64783067 -510.22265625 110.4453125 C-511.75710096 111.78753007 -513.22910278 113.20051899 -514.6875 114.625 C-517.64270133 117.13120665 -520.93594846 118.15394524 -524.5625 119.4375 C-530.3437324 121.52788912 -532.4365654 123.14976957 -536 128 C-540.55120361 131.6896589 -545.22913191 134.12297438 -550.6875 136.1875 C-556.36555785 138.63221935 -557.98368469 141.77149212 -560.5625 147.21484375 C-565.35422367 156.49880836 -573.67206353 160.37708547 -583.1171875 163.7578125 C-587.76127354 165.49187038 -589.85142754 167.52380738 -592 172 C-591.87754191 174.79561167 -591.87754191 174.79561167 -591 177 C-587.86929594 175.5820578 -585.49390983 173.83802713 -582.875 171.625 C-579.70368457 169.09623867 -576.9550433 167.44233973 -573.125 166.125 C-568.82777654 164.59739352 -565.99408555 162.49714584 -562.5625 159.5 C-558.06458094 155.60265536 -554.10405789 153.51193441 -548.41015625 151.8515625 C-545.9341525 151.11428024 -545.9341525 151.11428024 -543.9453125 149.44140625 C-541.75299879 147.81698103 -540.48748031 147.60972003 -537.8125 147.3125 C-533.79876467 146.52790876 -531.88389777 145.24769817 -529 142.375 C-520.31284382 134.06358587 -508.21672588 130.36781123 -497.0625 126.5 C-490.49667751 124.21581064 -485.79550221 121.71901971 -480.60546875 116.98828125 C-476.61947835 113.94649847 -472.16093586 112.20672215 -467.53051758 110.34570312 C-463.93520718 108.89647172 -461.07736982 107.3196589 -458 105 C-456.49195333 104.61290781 -454.96858938 104.28250743 -453.4375 104 C-447.8695705 102.48591391 -445.12869499 99.32196016 -441.33129883 95.12670898 C-437.08440131 90.64557191 -432.76610525 88.86391646 -426.9453125 87.09765625 C-423.90539362 86.13994888 -423.90539362 86.13994888 -421.484375 83.984375 C-418.70400474 81.76357611 -416.54368984 81.08879096 -413.125 80.1875 C-407.89555399 78.57007966 -405.20515765 76.698383 -401.6171875 72.6640625 C-396.70693453 67.61148336 -388.90796464 65.82442446 -382.48828125 63.41796875 C-378.8964172 61.95789411 -375.50536927 60.28132742 -372.0625 58.5 C-363.25495643 54.01313818 -354.49304834 50.30271934 -344.625 49.125 C-339.20873606 48.37891861 -336.73107708 46.51611278 -332.90234375 42.7421875 C-327.93234129 38.19060414 -321.90629845 36.92481016 -315.4375 35.75 C-308.163629 34.32190451 -302.33046338 31.43159847 -295.8515625 27.99609375 C-291.51462661 25.69987782 -287.02766587 23.87522828 -282.453125 22.10546875 C-279.96081716 21.10970542 -279.96081716 21.10970542 -278.03125 19.390625 C-275.35836836 17.56072911 -273.46417026 17.63327836 -270.25 17.5625 C-264.50554699 17.23867054 -260.91493787 15.93005911 -256 13 C-254.86111328 13.83144531 -254.86111328 13.83144531 -253.69921875 14.6796875 C-252.20841797 15.76636719 -252.20841797 15.76636719 -250.6875 16.875 C-249.70136719 17.59429688 -248.71523438 18.31359375 -247.69921875 19.0546875 C-243.08912932 22.37715427 -240.83294931 23.31466227 -235.125 23.375 C-233.91070313 23.40335938 -232.69640625 23.43171875 -231.4453125 23.4609375 C-227.4241713 22.92296169 -225.9526349 21.68514881 -223 19 C-212.59940781 15.53313594 -203.55937353 20.08293548 -194 24 C-193.01 24.33 -192.02 24.66 -191 25 C-189.23096911 28.351848 -188.42039044 31.23253784 -189 35 C-189.86625 35.8353125 -189.86625 35.8353125 -190.75 36.6875 C-193.12508486 39.12855944 -193.74121475 40.65886204 -194.875 43.8125 C-196.71863017 48.69992744 -198.94787923 52.62150545 -203 56 C-205.875 56.9375 -205.875 56.9375 -208 57 C-207.10667132 60.67257345 -206.13525451 61.89927856 -203.0625 64.1875 C-200.23343157 65.25875813 -199.16644417 65.0648891 -196.3046875 63.94921875 C-193.46888505 62.39223184 -190.74529593 60.71044042 -188 59 C-183.46216252 56.39632276 -179.43307411 55.49516577 -174.3125 54.875 C-166.39965413 53.72175317 -159.84368074 50.98056568 -152.77270508 47.31201172 C-148.00199969 44.84779794 -143.39122218 43.12771268 -138.22045898 41.67919922 C-135.58999237 40.8745859 -133.36025126 39.71600656 -131 38.3125 C-127.38926728 36.39429824 -125.07360866 35.7824394 -121 36.0625 C-115.69992761 36.36843242 -112.88632821 34.47350858 -108.5703125 31.578125 C-105.90160964 29.93959011 -103.406582 28.97590996 -100.4375 28 C-96.70952198 26.75561234 -93.98149868 25.39421863 -90.875 23 C-85.50216682 19.16776415 -79.59156888 18.25126692 -73.24609375 16.9453125 C-69.62155829 16.188762 -66.28204664 15.05392949 -62.8125 13.75 C-56.84354002 11.80018954 -51.44490678 11.88942254 -45.25 12.0625 C-35.66579947 12.31617073 -28.00150944 10.83770043 -19.015625 7.66699219 C-14.39523887 6.13805627 -9.60830917 5.12563931 -4.87890625 3.9921875 C-1.71338691 3.2264762 -1.71338691 3.2264762 0 0 Z M-523 26 C-523 27.98 -523 29.96 -523 32 C-520.9837767 31.28436734 -520.9837767 31.28436734 -519 30 C-518.19471111 27.94999129 -518.19471111 27.94999129 -518 26 C-519.65 26 -521.3 26 -523 26 Z M1360 26 C1359.01 27.485 1359.01 27.485 1358 29 C1359.15568119 30.37768644 1359.15568119 30.37768644 1362.3125 30.1875 C1365.64638318 30.01798052 1367.25691987 29.75557129 1370 28 C1366.38026598 26.68373308 1363.90432869 26 1360 26 Z M-584.25 33.125 C-586.3301708 34.96341029 -586.3301708 34.96341029 -586.25 38.1875 C-586.1675 39.115625 -586.085 40.04375 -586 41 C-583.86920862 42.13210475 -583.86920862 42.13210475 -581 42 C-578.37232162 39.92608855 -576.18678905 37.52709628 -574 35 C-577.45459635 32.03891742 -579.86204602 30.93102301 -584.25 33.125 Z M-529 33 C-529 33.99 -529 34.98 -529 36 C-528.01 35.67 -527.02 35.34 -526 35 C-526 34.34 -526 33.68 -526 33 C-525.34 32.67 -524.68 32.34 -524 32 C-526.9254644 31.7763932 -526.9254644 31.7763932 -529 33 Z M-547 38 C-547.99 38.66 -548.98 39.32 -550 40 C-550 40.66 -550 41.32 -550 42 C-548.68 41.34 -547.36 40.68 -546 40 C-546.33 39.34 -546.66 38.68 -547 38 Z M-564 46 C-563.67 46.66 -563.34 47.32 -563 48 C-562.01 47.67 -561.02 47.34 -560 47 C-561.32 46.67 -562.64 46.34 -564 46 Z M-605 52 C-604.67 52.99 -604.34 53.98 -604 55 C-604 54.01 -604 53.02 -604 52 C-604.33 52 -604.66 52 -605 52 Z M-633 70 C-632.67 70.99 -632.34 71.98 -632 73 C-632 72.01 -632 71.02 -632 70 C-632.33 70 -632.66 70 -633 70 Z M-577 95 C-577 95.66 -577 96.32 -577 97 C-576.34 96.67 -575.68 96.34 -575 96 C-575.66 95.67 -576.32 95.34 -577 95 Z M1603 107 C1602.67 107.99 1602.34 108.98 1602 110 C1602.99 109.67 1603.98 109.34 1605 109 C1605 108.34 1605 107.68 1605 107 C1604.34 107 1603.68 107 1603 107 Z M-597 107 C-597.99 107.495 -597.99 107.495 -599 108 C-598.67 108.66 -598.34 109.32 -598 110 C-597.01 109.34 -596.02 108.68 -595 108 C-595.66 107.67 -596.32 107.34 -597 107 Z M-5.625 132.5 C-6.07875 132.995 -6.5325 133.49 -7 134 C-5.02463255 133.65213292 -5.02463255 133.65213292 -3 133 C-2.67 132.34 -2.34 131.68 -2 131 C-4.12364481 130.77390663 -4.12364481 130.77390663 -5.625 132.5 Z M-724 144 C-723 146 -723 146 -723 146 Z M1916.0625 151.3125 C1914.49435547 151.993125 1914.49435547 151.993125 1912.89453125 152.6875 C1909.88368877 154.05274032 1906.9232433 155.45717714 1904 157 C1904.33 157.66 1904.66 158.32 1905 159 C1907.55525484 159.73745924 1907.55525484 159.73745924 1911 160 C1912.25103516 160.13341797 1912.25103516 160.13341797 1913.52734375 160.26953125 C1920.11534922 160.66684434 1923.90382869 159.50081262 1929.22265625 155.60546875 C1931.22450584 153.92933061 1931.22450584 153.92933061 1933 151 C1926.37720283 148.53570338 1922.55468336 148.48000301 1916.0625 151.3125 Z M-722 151 C-721 153 -721 153 -721 153 Z M-730 156 C-730.33 156.99 -730.66 157.98 -731 159 C-730.01 158.67 -729.02 158.34 -728 158 C-728 157.34 -728 156.68 -728 156 C-728.66 156 -729.32 156 -730 156 Z M-709 156 C-709.33 156.99 -709.66 157.98 -710 159 C-708.68 158.34 -707.36 157.68 -706 157 C-706.99 156.67 -707.98 156.34 -709 156 Z M1936 182 C1937.485 182.99 1937.485 182.99 1939 184 C1939 183.34 1939 182.68 1939 182 C1938.01 182 1937.02 182 1936 182 Z M502 218 C502.33 218.99 502.66 219.98 503 221 C503.66 220.67 504.32 220.34 505 220 C504.67 219.34 504.34 218.68 504 218 C503.34 218 502.68 218 502 218 Z M-880 323 C-880.66 323.66 -881.32 324.32 -882 325 C-879.09926819 325.67801034 -879.09926819 325.67801034 -876 326 C-875.34 325.34 -874.68 324.68 -874 324 C-876.90073181 323.32198966 -876.90073181 323.32198966 -880 323 Z " fill="#A07489" transform="translate(959,790)"/>
<path d="M0 0 C2.375 1.625 2.375 1.625 4 4 C4.60817046 7.64902278 4.51417751 9.26828585 2.375 12.3125 C-0.57951586 14.41176127 -2.36924173 15 -6 15 C-9.49316729 13.05935151 -10.732074 11.80377801 -12 8 C-12 5 -12 5 -10.75 2.6875 C-7.5838148 -0.36560716 -4.20826073 -0.42941436 0 0 Z " fill="#A07489" transform="translate(898,1092)"/>
<path d="M0 0 C1.4583982 0.00399197 2.91679743 0.01875035 4.375 0.04296875 C5.11234375 0.04361328 5.8496875 0.04425781 6.609375 0.04492188 C12.09398191 0.08995971 12.09398191 0.08995971 14.375 1.23046875 C14.045 2.88046875 13.715 4.53046875 13.375 6.23046875 C12.323125 6.49859375 11.27125 6.76671875 10.1875 7.04296875 C5.78763377 8.41341889 2.63116063 9.97430812 -0.625 13.23046875 C-1.945 13.23046875 -3.265 13.23046875 -4.625 13.23046875 C-6.65392674 9.17261526 -6.79385197 6.61366365 -5.625 2.23046875 C-3.625 0.23046875 -3.625 0.23046875 0 0 Z " fill="#A07489" transform="translate(1415.625,1036.76953125)"/>
<path d="M0 0 C2.00720923 0.28674418 4.0085944 0.61866701 6 1 C6.33 1.99 6.66 2.98 7 4 C7.639375 4.309375 8.27875 4.61875 8.9375 4.9375 C11.45468915 6.2342338 11.96886948 7.4221737 13 10 C11.02 10.99 11.02 10.99 9 12 C7 10.6875 7 10.6875 5 9 C5 8.01 5 7.02 5 6 C3.35 5.67 1.7 5.34 0 5 C-0.5625 3.0625 -0.5625 3.0625 -1 1 C-0.67 0.67 -0.34 0.34 0 0 Z " fill="#A07489" transform="translate(903,1075)"/>
<path d="M0 0 C-0.33 1.32 -0.66 2.64 -1 4 C-2.65 4.33 -4.3 4.66 -6 5 C-6.66 3.68 -7.32 2.36 -8 1 C-4.93251126 -0.86240388 -3.40254489 -1.2151946 0 0 Z " fill="#A07489" transform="translate(484,810)"/>
<path d="M0 0 C-0.375 1.9375 -0.375 1.9375 -1 4 C-1.99 4.495 -1.99 4.495 -3 5 C-5.625 4.0625 -5.625 4.0625 -8 3 C-8 2.01 -8 1.02 -8 0 C-5.13822943 -1.43088528 -3.06624227 -0.59991697 0 0 Z " fill="#A07489" transform="translate(505,823)"/>
<path d="M0 0 C0.94875 0.350625 1.8975 0.70125 2.875 1.0625 C2.215 2.3825 1.555 3.7025 0.875 5.0625 C-1.105 4.4025 -3.085 3.7425 -5.125 3.0625 C-5.125 2.0725 -5.125 1.0825 -5.125 0.0625 C-3.125 -0.9375 -3.125 -0.9375 0 0 Z " fill="#A07489" transform="translate(182.125,939.9375)"/>
<path d="M0 0 C1.65 0.33 3.3 0.66 5 1 C5.33 2.32 5.66 3.64 6 5 C3 6 3 6 0.8125 5.0625 C0.214375 4.711875 -0.38375 4.36125 -1 4 C-0.67 2.68 -0.34 1.36 0 0 Z " fill="#A07489" transform="translate(39,1149)"/>
<path d="M0 0 C1.32 0.66 2.64 1.32 4 2 C2.25 6.875 2.25 6.875 0 8 C-0.66 7.67 -1.32 7.34 -2 7 C-1.125 1.125 -1.125 1.125 0 0 Z " fill="#A07489" transform="translate(264,864)"/>
<path d="M0 0 C1.5625 1.1875 1.5625 1.1875 3 3 C2.6875 5.6875 2.6875 5.6875 2 8 C1.01 7.67 0.02 7.34 -1 7 C-1.625 4.625 -1.625 4.625 -2 2 C-1.34 1.34 -0.68 0.68 0 0 Z " fill="#A07489" transform="translate(2959,962)"/>
<path d="M0 0 C1.98 0.495 1.98 0.495 4 1 C3.67 2.65 3.34 4.3 3 6 C1.68 6 0.36 6 -1 6 C-0.67 4.02 -0.34 2.04 0 0 Z " fill="#A07489" transform="translate(1997,1000)"/>
</svg>
